<?xml version="1.0" encoding="UTF-8" standalone="no"?>
<!-- Created with Inkscape (http://www.inkscape.org/) -->
<svg
   xmlns:svg="http://www.w3.org/2000/svg"
   xmlns="http://www.w3.org/2000/svg"
   xmlns:xlink="http://www.w3.org/1999/xlink"
   version="1.0"
   width="500"
   height="499.99997"
   viewBox="-0.811 -0.732 1708 1708"
   id="svg11310"
   xml:space="preserve">
<defs
   id="defs11312"><linearGradient
   id="linearGradient19837"><stop
     style="stop-color:#b40000;stop-opacity:1"
     offset="0"
     id="stop19839" /><stop
     style="stop-color:#b40000;stop-opacity:0"
     offset="1"
     id="stop19841" /></linearGradient><linearGradient
   id="linearGradient14977"><stop
     style="stop-color:white;stop-opacity:0.47058824"
     offset="0"
     id="stop14979" /><stop
     style="stop-color:white;stop-opacity:0.70588237"
     offset="1"
     id="stop14981" /></linearGradient><linearGradient
   id="linearGradient14071"><stop
     style="stop-color:white;stop-opacity:1"
     offset="0"
     id="stop14073" /><stop
     style="stop-color:white;stop-opacity:0"
     offset="1"
     id="stop14075" /></linearGradient><linearGradient
   id="linearGradient14012"><stop
     style="stop-color:#dc0000;stop-opacity:1"
     offset="0"
     id="stop14014" /><stop
     style="stop-color:#ff3d01;stop-opacity:0.58823532"
     offset="1"
     id="stop14016" /></linearGradient><linearGradient
   id="linearGradient14004"><stop
     style="stop-color:white;stop-opacity:1"
     offset="0"
     id="stop14006" /><stop
     style="stop-color:white;stop-opacity:0"
     offset="1"
     id="stop14008" /></linearGradient>
<linearGradient
   x1="1531.1748"
   y1="-710.26196"
   x2="514.25446"
   y2="1775.3436"
   id="linearGradient14010"
   xlink:href="#linearGradient14004"
   gradientUnits="userSpaceOnUse"
   gradientTransform="matrix(0.995461,0,0,0.995461,3.833802,3.912899)" /><linearGradient
   x1="1026.7279"
   y1="1147.7113"
   x2="1703.623"
   y2="1703.6219"
   id="linearGradient14022"
   xlink:href="#linearGradient14012"
   gradientUnits="userSpaceOnUse"
   gradientTransform="matrix(0.995461,0,0,0.995461,3.833802,3.912899)" /><linearGradient
   x1="853.22852"
   y1="6994.7397"
   x2="853.22852"
   y2="-1149.4908"
   id="linearGradient14077"
   xlink:href="#linearGradient14071"
   gradientUnits="userSpaceOnUse" /><linearGradient
   x1="1678.5588"
   y1="288.91214"
   x2="1678.5588"
   y2="1417.6237"
   id="linearGradient19843"
   xlink:href="#linearGradient19837"
   gradientUnits="userSpaceOnUse" /></defs>
















<g
   transform="translate(-5.210447e-5,4.612732e-5)"
   style="opacity:1;display:inline"
   id="layer1"><path
     d="M 1417.5448,1699.8019 C 1573.387,1699.8019 1699.7228,1573.4671 1699.7228,1417.6237"
     style="fill:none;fill-opacity:0.07843137;stroke:#e83131;stroke-width:10.2480011;stroke-linecap:round;stroke-linejoin:round;stroke-miterlimit:100;stroke-dasharray:none;stroke-opacity:0.66666667"
     id="path17680" /><path
     d="M 6.6549519,1417.6237 C 6.6549519,1573.4671 132.99081,1699.8019 288.83311,1699.8019"
     style="fill:none;fill-opacity:0.07843137;stroke:#e83131;stroke-width:10.2480011;stroke-linecap:round;stroke-linejoin:round;stroke-miterlimit:100;stroke-dasharray:none;stroke-opacity:0.66666667"
     id="path17682" /><line
     style="fill:none;fill-opacity:0.07843137;stroke:#e83131;stroke-width:10.2480011;stroke-linecap:round;stroke-linejoin:round;stroke-miterlimit:100;stroke-dasharray:none;stroke-opacity:0.66666667"
     id="line17684"
     y2="1699.802"
     x2="1417.5448"
     y1="1699.802"
     x1="288.83316"
     stroke-miterlimit="500" /><line
     style="fill:none;fill-opacity:0.07843137;stroke:#e83131;stroke-width:10.2480011;stroke-linecap:round;stroke-linejoin:round;stroke-miterlimit:100;stroke-dasharray:none;stroke-opacity:0.66666667"
     id="line17690"
     y2="1417.6238"
     x2="6.654954"
     y1="288.91214"
     x1="6.654954"
     stroke-miterlimit="500" /><path
     d="M 288.83311,6.7339793 C 132.99081,6.7339793 6.6549519,133.06984 6.6549519,288.91214"
     style="fill:none;fill-opacity:0.07843137;stroke:#e83131;stroke-width:10.2480011;stroke-linecap:round;stroke-linejoin:round;stroke-miterlimit:100;stroke-dasharray:none;stroke-opacity:0.66666667"
     id="path17692" /><line
     style="fill:none;fill-opacity:0.07843137;stroke:#e83131;stroke-width:10.2480011;stroke-linecap:round;stroke-linejoin:round;stroke-miterlimit:100;stroke-dasharray:none;stroke-opacity:0.66666667"
     id="line17694"
     y2="6.733994"
     x2="288.83316"
     y1="6.733994"
     x1="1417.5448"
     stroke-miterlimit="500" /><line
     style="fill:none;fill-opacity:0.07843137;stroke:#e83131;stroke-width:10.2480011;stroke-linecap:round;stroke-linejoin:round;stroke-miterlimit:100;stroke-dasharray:none;stroke-opacity:0.66666667"
     id="line17700"
     y2="288.91214"
     x2="1699.7231"
     y1="1417.6238"
     x1="1699.7231"
     stroke-miterlimit="500" /><path
     d="M 1699.7228,288.91214 C 1699.7228,214.07442 1669.9934,142.30174 1617.0748,89.383072 C 1564.1561,36.464399 1492.3835,6.7349693 1417.5457,6.7349693 L 288.83311,6.7349693 C 213.9944,6.7349693 142.22172,36.464399 89.303052,89.383072 C 36.385372,142.30174 6.6549519,214.07442 6.6549519,288.91214 L 6.6549519,1417.6237 C 6.6549519,1492.4625 36.384382,1564.2352 89.303052,1617.1528 C 142.22172,1670.0716 213.9944,1699.801 288.83311,1699.801 L 1417.5448,1699.801 C 1492.3835,1699.801 1564.1552,1670.0716 1617.0738,1617.1528 C 1669.9925,1564.2352 1699.7219,1492.4615 1699.7219,1417.6237 L 1699.7219,288.91214 L 1699.7228,288.91214 z "
     style="opacity:1;fill:url(#linearGradient14022);fill-opacity:1;fill-rule:evenodd;display:inline"
     id="path17668" /><path
     d="M 1699.7228,288.91214 C 1699.7228,133.06984 1573.387,6.7349693 1417.5448,6.7349693 L 288.83311,6.7349693 C 132.99081,6.7339793 6.6549519,133.06984 6.6549519,288.91214 L 6.6549519,1135.4457 C 684.27075,1188.7794 1335.8205,863.00502 1699.7228,288.91214 z "
     style="opacity:1;fill:url(#linearGradient14010);fill-opacity:1;fill-rule:evenodd;display:inline"
     id="path17670" /><path
     d="M 1417.5448,1671.5836 C 1558.5029,1661.1612 1674.5607,1556.7094 1699.7228,1417.6237 C 1699.7228,1573.4671 1573.387,1699.8019 1417.5448,1699.8019 L 288.83311,1699.8019 C 132.99081,1699.8019 6.6549519,1573.4671 6.6549519,1417.6237 C 31.816212,1556.7094 147.87494,1661.1612 288.83311,1671.5836 L 1417.5448,1671.5836 z "
     style="fill:white;fill-opacity:0.25842698;fill-rule:evenodd"
     id="path11342" /><path
     d="M 1417.5448,1699.8019 C 1573.387,1699.8019 1699.7228,1573.4671 1699.7228,1417.6237"
     style="fill:none;stroke:#f55;stroke-width:14.93190384;stroke-linecap:round;stroke-linejoin:round;stroke-miterlimit:100;stroke-dasharray:none;stroke-opacity:1"
     id="path11336" /><path
     d="M 6.6549519,1417.6237 C 6.6549519,1573.4671 132.99081,1699.8019 288.83311,1699.8019"
     style="fill:none;stroke:#f55;stroke-width:14.93190384;stroke-linecap:round;stroke-linejoin:round;stroke-miterlimit:100;stroke-dasharray:none;stroke-opacity:1"
     id="path11334" /><line
     stroke-miterlimit="500"
     x1="288.83316"
     y1="1699.802"
     x2="1417.5448"
     y2="1699.802"
     id="line11326"
     style="fill:none;stroke:#f55;stroke-width:14.93190384;stroke-linecap:round;stroke-linejoin:round;stroke-miterlimit:100;stroke-dasharray:none;stroke-opacity:1" /><line
     stroke-miterlimit="500"
     x1="6.654954"
     y1="288.91214"
     x2="6.654954"
     y2="1417.6238"
     id="line11332"
     style="fill:none;stroke:#f55;stroke-width:14.93190384;stroke-linecap:round;stroke-linejoin:round;stroke-miterlimit:100;stroke-dasharray:none;stroke-opacity:1" /><path
     d="M 288.83311,6.7339793 C 132.99081,6.7339793 6.6549519,133.06984 6.6549519,288.91214"
     style="fill:none;stroke:#f55;stroke-width:14.93190384;stroke-linecap:round;stroke-linejoin:round;stroke-miterlimit:100;stroke-dasharray:none;stroke-opacity:1"
     id="path11340" /><line
     stroke-miterlimit="500"
     x1="1417.5448"
     y1="6.733994"
     x2="288.83316"
     y2="6.733994"
     id="line11330"
     style="fill:none;stroke:#f55;stroke-width:14.93190384;stroke-linecap:round;stroke-linejoin:round;stroke-miterlimit:100;stroke-dasharray:none;stroke-opacity:1" /><path
     d="M 1699.7228,288.91214 C 1699.7228,133.06984 1573.387,6.7349693 1417.5448,6.7349693"
     style="fill:none;stroke:#f55;stroke-width:14.93190384;stroke-linecap:round;stroke-linejoin:round;stroke-miterlimit:100;stroke-dasharray:none;stroke-opacity:1"
     id="path11338" /><line
     stroke-miterlimit="500"
     x1="1699.7231"
     y1="1417.6238"
     x2="1699.7231"
     y2="288.91214"
     id="line11328"
     style="fill:none;stroke:#f55;stroke-width:14.93190384;stroke-linecap:round;stroke-linejoin:round;stroke-miterlimit:100;stroke-dasharray:none;stroke-opacity:1" /><path
     d="M 1417.5448,1671.5836 C 1558.5029,1661.1612 1674.5607,1556.7094 1699.7228,1417.6237 C 1699.7228,1573.4671 1573.387,1699.8019 1417.5448,1699.8019 L 288.83311,1699.8019 C 132.99081,1699.8019 6.6549519,1573.4671 6.6549519,1417.6237 C 31.816212,1556.7094 147.87494,1661.1612 288.83311,1671.5836 L 1417.5448,1671.5836 z "
     style="fill:white;fill-opacity:0.58823529;fill-rule:evenodd"
     id="path17676" /><path
     d="M 1699.7228,288.91214 C 1699.7228,133.06984 1573.387,6.7349693 1417.5448,6.7349693"
     style="fill:none;fill-opacity:0.07843137;stroke:#e83131;stroke-width:10.2480011;stroke-linecap:round;stroke-linejoin:round;stroke-miterlimit:100;stroke-dasharray:none;stroke-opacity:0.66666667"
     id="path17696" /><path
     d="M 6.6549519,1417.6237 C 30.031352,1417.6237 48.981922,1164.954 48.981922,853.26745 C 48.981922,541.58286 30.031352,288.91214 6.6549519,288.91214 L 6.6549519,1417.6237 L 6.6549519,1417.6237 z "
     style="fill:#b40000;fill-opacity:0.58823529;fill-rule:evenodd"
     id="path11324" /><path
     d="M 1699.7228,1417.6237 C 1676.3465,1417.6237 1657.3949,1164.954 1657.3949,853.26745 C 1657.3949,541.58286 1676.3455,288.91214 1699.7228,288.91214 L 1699.7228,1417.6237 z "
     style="fill:url(#linearGradient19843);fill-opacity:1;fill-rule:evenodd"
     id="path11322" /><path
     d="M 1699.7228,288.91214 C 1652.7113,168.68342 1545.1607,82.642811 1417.5448,63.170614 L 288.83311,63.170614 C 161.21708,82.642811 53.666562,168.68243 6.6549519,288.91214 C 6.6549519,133.06984 132.99081,6.7349693 288.83311,6.7349693 L 1417.5448,6.7349693 C 1573.387,6.7339793 1699.7228,133.06984 1699.7228,288.91214 z "
     style="fill:white;fill-opacity:0.54901961;fill-rule:evenodd"
     id="path14085" /></g><g
   transform="translate(-5.210447e-5,4.612732e-5)"
   style="display:inline"
   id="layer2"><path
     d="M 660.73945,528.91844 C 436.34195,635.20672 340.59508,903.27958 446.88217,1127.6771 C 553.16926,1352.0746 821.24331,1447.8215 1045.6408,1341.5344 C 1270.0383,1235.2461 1365.7852,967.17322 1259.4981,742.77572 C 1215.0488,648.93203 1139.4845,573.36889 1045.6408,528.91963 C 1002.6189,508.54154 984.2609,457.14615 1004.639,414.12309 C 1025.0171,371.10002 1076.4125,352.74316 1119.4367,373.12125 C 1429.8792,520.16453 1562.3398,891.03054 1415.2953,1201.473 C 1268.252,1511.9154 897.3872,1644.376 586.94355,1497.3315 C 276.50229,1350.2895 144.04171,979.42345 291.08499,668.981 C 352.5782,539.15339 457.11713,434.61446 586.94474,373.12125 C 629.96781,352.74316 681.36319,371.10002 701.74129,414.12309 C 722.11938,457.14615 703.76133,508.54154 660.73945,528.91844 z "
     style="opacity:1;fill:white;fill-opacity:1;fill-rule:evenodd;display:inline"
     id="path17672" /><path
     d="M 766.99435,666.50902 C 766.99435,714.11355 805.58501,752.70421 853.19073,752.70421 C 900.7953,752.70421 939.3871,714.11355 939.3871,666.50902 L 939.3871,235.53067 C 939.3871,187.92614 900.7953,149.33429 853.19073,149.33429 C 805.5862,149.33429 766.99435,187.92495 766.99435,235.53067 L 766.99435,666.50902 z "
     style="opacity:1;fill:white;fill-opacity:1;fill-rule:evenodd;display:inline"
     id="path17674" /><path
     d="M 1171.0921,1253.1283 C 995.5202,1428.7002 710.86009,1428.7002 535.2882,1253.1283 C 617.429,1341.4258 732.59283,1391.5823 853.18954,1391.5823 C 973.7863,1391.5835 1088.9513,1341.4258 1171.0921,1253.1283 z M 586.94474,373.12125 C 522.5109,403.6401 463.8033,445.01159 413.39051,495.42558 C 467.84577,450.44567 527.00532,411.48773 589.83886,379.23027 C 615.34457,369.46157 643.92207,371.93475 667.36958,385.93909 C 690.81708,399.94344 706.54574,423.93114 710.03848,451.01925 C 710.03848,421.47227 694.90486,393.98349 669.93696,378.18328 C 644.96787,362.38307 613.64768,360.47274 586.94474,373.12125 z M 996.343,451.01925 C 999.8357,423.93114 1015.562,399.94344 1039.0107,385.93909 C 1062.4594,371.93475 1091.0357,369.46157 1116.5414,379.23027 C 1179.375,411.48773 1238.5357,450.44567 1292.991,495.42558 C 1242.5782,445.01159 1183.8706,403.6401 1119.4367,373.12125 C 1092.7326,360.47274 1061.4124,362.38427 1036.4445,378.18447 C 1011.4778,393.98468 996.343,421.47227 996.343,451.01925 z M 766.99435,235.53067 C 770.59202,190.59369 808.10946,155.95964 853.19073,155.95964 C 898.272,155.95964 935.7894,190.5925 939.3871,235.53067 C 939.3871,187.92614 900.7953,149.33429 853.19073,149.33429 C 805.58501,149.33429 766.99435,187.92495 766.99435,235.53067 z "
     style="opacity:1;fill:black;fill-opacity:0.62745098;fill-rule:evenodd;display:inline"
     id="path17678" /></g></svg>