<?xml version="1.0" encoding="UTF-8" standalone="no"?>
<!-- Created with Inkscape (http://www.inkscape.org/) -->

<svg
   xmlns:dc="http://purl.org/dc/elements/1.1/"
   xmlns:cc="http://creativecommons.org/ns#"
   xmlns:rdf="http://www.w3.org/1999/02/22-rdf-syntax-ns#"
   xmlns:svg="http://www.w3.org/2000/svg"
   xmlns="http://www.w3.org/2000/svg"
   xmlns:xlink="http://www.w3.org/1999/xlink"
   xmlns:sodipodi="http://sodipodi.sourceforge.net/DTD/sodipodi-0.dtd"
   xmlns:inkscape="http://www.inkscape.org/namespaces/inkscape"
   version="1.0"
   width="500"
   height="499.99997"
   viewBox="-0.811 -0.732 1708 1708"
   id="svg11310"
   xml:space="preserve"
   inkscape:version="0.48.4 r9939"
   sodipodi:docname=".Icon-Power.svg"
   inkscape:export-filename="D:\ALaurent\Temp\git\NewtifryPro.bitbucket\NewtifryPro\assets\.Icon-Power.png"
   inkscape:export-xdpi="92.159271"
   inkscape:export-ydpi="92.159271"><metadata
   id="metadata3143"><rdf:RDF><cc:Work
       rdf:about=""><dc:format>image/svg+xml</dc:format><dc:type
         rdf:resource="http://purl.org/dc/dcmitype/StillImage" /><dc:title></dc:title></cc:Work></rdf:RDF></metadata><sodipodi:namedview
   pagecolor="#ffffff"
   bordercolor="#666666"
   borderopacity="1"
   objecttolerance="10"
   gridtolerance="10"
   guidetolerance="10"
   inkscape:pageopacity="0"
   inkscape:pageshadow="2"
   inkscape:window-width="1920"
   inkscape:window-height="1058"
   id="namedview3141"
   showgrid="false"
   inkscape:zoom="1"
   inkscape:cx="82.304337"
   inkscape:cy="287.32423"
   inkscape:window-x="-8"
   inkscape:window-y="-8"
   inkscape:window-maximized="1"
   inkscape:current-layer="svg11310" />
<defs
   id="defs11312"><linearGradient
   id="linearGradient19837"><stop
     style="stop-color:#b40000;stop-opacity:1"
     offset="0"
     id="stop19839" /><stop
     style="stop-color:#b40000;stop-opacity:0"
     offset="1"
     id="stop19841" /></linearGradient><linearGradient
   id="linearGradient14977"><stop
     style="stop-color:white;stop-opacity:0.47058824"
     offset="0"
     id="stop14979" /><stop
     style="stop-color:white;stop-opacity:0.70588237"
     offset="1"
     id="stop14981" /></linearGradient><linearGradient
   id="linearGradient14071"><stop
     style="stop-color:white;stop-opacity:1"
     offset="0"
     id="stop14073" /><stop
     style="stop-color:white;stop-opacity:0"
     offset="1"
     id="stop14075" /></linearGradient><linearGradient
   id="linearGradient14012"><stop
     style="stop-color:#dc0000;stop-opacity:1"
     offset="0"
     id="stop14014" /><stop
     style="stop-color:#ff3d01;stop-opacity:0.58823532"
     offset="1"
     id="stop14016" /></linearGradient><linearGradient
   id="linearGradient14004"><stop
     style="stop-color:white;stop-opacity:1"
     offset="0"
     id="stop14006" /><stop
     style="stop-color:white;stop-opacity:0"
     offset="1"
     id="stop14008" /></linearGradient>
<linearGradient
   x1="1531.1748"
   y1="-710.26196"
   x2="514.25446"
   y2="1775.3436"
   id="linearGradient14010"
   xlink:href="#linearGradient14004"
   gradientUnits="userSpaceOnUse"
   gradientTransform="matrix(0.995461,0,0,0.995461,3.833802,3.912899)" /><linearGradient
   x1="1026.7279"
   y1="1147.7113"
   x2="1703.623"
   y2="1703.6219"
   id="linearGradient14022"
   xlink:href="#linearGradient14012"
   gradientUnits="userSpaceOnUse"
   gradientTransform="matrix(0.995461,0,0,0.995461,3.833802,3.912899)" /><linearGradient
   x1="853.22852"
   y1="6994.7397"
   x2="853.22852"
   y2="-1149.4908"
   id="linearGradient14077"
   xlink:href="#linearGradient14071"
   gradientUnits="userSpaceOnUse" /><linearGradient
   x1="1678.5588"
   y1="288.91214"
   x2="1678.5588"
   y2="1417.6237"
   id="linearGradient19843"
   xlink:href="#linearGradient19837"
   gradientUnits="userSpaceOnUse" /><linearGradient
   gradientUnits="userSpaceOnUse"
   gradientTransform="scale(0.56550949,1.7683169)"
   y2="49.213819"
   x2="363.36503"
   y1="49.213819"
   x1="301.31957"
   id="linearGradient4466"
   xlink:href="#linearGradient26051" /><linearGradient
   id="linearGradient26051"><stop
     stop-color="#ffffff"
     stop-opacity="0.449275"
     offset="0"
     id="stop26052" /><stop
     stop-color="#ffffff"
     stop-opacity="0"
     offset="1"
     id="stop26053" /></linearGradient><linearGradient
   gradientUnits="userSpaceOnUse"
   gradientTransform="scale(0.80688829,1.2393289)"
   y2="117.96692"
   x2="287.08308"
   y1="392.98092"
   x1="189.62609"
   id="linearGradient4515"
   xlink:href="#linearGradient17250" /><linearGradient
   id="linearGradient17250"><stop
     stop-color="#dc0000"
     offset="0"
     id="stop17251" /><stop
     stop-color="#ffb200"
     offset="1"
     id="stop17252" /></linearGradient><linearGradient
   gradientUnits="userSpaceOnUse"
   gradientTransform="scale(0.80266507,1.2458497)"
   y2="420.59518"
   x2="384.97591"
   y1="37.318506"
   x1="-111.42184"
   id="linearGradient4498"
   xlink:href="#linearGradient29186" /><linearGradient
   id="linearGradient29186"><stop
     stop-color="#ffffff"
     offset="0"
     id="stop29187" /><stop
     stop-color="#ffffff"
     stop-opacity="0"
     offset="1"
     id="stop29188" /></linearGradient><linearGradient
   gradientUnits="userSpaceOnUse"
   gradientTransform="scale(0.60479858,1.653443)"
   y2="178.95243"
   x2="277.42696"
   y1="285.51209"
   x1="327.27966"
   id="linearGradient4512"
   xlink:href="#linearGradient17250" /><linearGradient
   id="linearGradient3346"><stop
     stop-color="#dc0000"
     offset="0"
     id="stop3348" /><stop
     stop-color="#ffb200"
     offset="1"
     id="stop3350" /></linearGradient><linearGradient
   gradientUnits="userSpaceOnUse"
   gradientTransform="scale(0.61243685,1.6328214)"
   y2="104.4592"
   x2="573.92995"
   y1="104.4592"
   x1="520.71631"
   id="linearGradient4501"
   xlink:href="#linearGradient26051" /><linearGradient
   id="linearGradient3353"><stop
     stop-color="#ffffff"
     stop-opacity="0.449275"
     offset="0"
     id="stop3355" /><stop
     stop-color="#ffffff"
     stop-opacity="0"
     offset="1"
     id="stop3357" /></linearGradient><linearGradient
   gradientUnits="userSpaceOnUse"
   gradientTransform="scale(0.79717637,1.2544276)"
   y2="238.57043"
   x2="491.27167"
   y1="380.50355"
   x1="381.65663"
   id="linearGradient4479"
   xlink:href="#linearGradient17250" /><linearGradient
   id="linearGradient3360"><stop
     stop-color="#dc0000"
     offset="0"
     id="stop3362" /><stop
     stop-color="#ffb200"
     offset="1"
     id="stop3364" /></linearGradient><linearGradient
   gradientUnits="userSpaceOnUse"
   gradientTransform="scale(0.76167539,1.3128952)"
   y2="368.72275"
   x2="401.21864"
   y1="215.54375"
   x1="704.58329"
   id="linearGradient4476"
   xlink:href="#linearGradient14625" /><linearGradient
   id="linearGradient14625"><stop
     stop-color="#ffffff"
     offset="0"
     id="stop14626" /><stop
     stop-color="#ffffff"
     stop-opacity="0"
     offset="1"
     id="stop14627" /></linearGradient><linearGradient
   gradientUnits="userSpaceOnUse"
   gradientTransform="scale(0.62475875,1.6006178)"
   y2="208.66285"
   x2="663.42259"
   y1="208.66285"
   x1="604.67122"
   id="linearGradient4473"
   xlink:href="#linearGradient26051" /><linearGradient
   id="linearGradient3371"><stop
     stop-color="#ffffff"
     stop-opacity="0.449275"
     offset="0"
     id="stop3373" /><stop
     stop-color="#ffffff"
     stop-opacity="0"
     offset="1"
     id="stop3375" /></linearGradient><linearGradient
   gradientUnits="userSpaceOnUse"
   gradientTransform="scale(0.68602711,1.4576683)"
   y2="197.55136"
   x2="378.43571"
   y1="379.51052"
   x1="325.20171"
   id="linearGradient4470"
   xlink:href="#linearGradient17250" /><linearGradient
   id="linearGradient3378"><stop
     stop-color="#dc0000"
     offset="0"
     id="stop3380" /><stop
     stop-color="#ffb200"
     offset="1"
     id="stop3382" /></linearGradient><linearGradient
   gradientUnits="userSpaceOnUse"
   gradientTransform="scale(0.67852675,1.4737812)"
   y2="301.05522"
   x2="405.02551"
   y1="55.289661"
   x1="176.91841"
   id="linearGradient4463"
   xlink:href="#linearGradient14625" /><linearGradient
   id="linearGradient3385"><stop
     stop-color="#ffffff"
     offset="0"
     id="stop3387" /><stop
     stop-color="#ffffff"
     stop-opacity="0"
     offset="1"
     id="stop3389" /></linearGradient><linearGradient
   gradientUnits="userSpaceOnUse"
   gradientTransform="scale(0.61545471,1.6248149)"
   y2="321.83117"
   x2="225.15241"
   y1="107.58266"
   x1="26.867114"
   id="linearGradient4504"
   xlink:href="#linearGradient14625" /><linearGradient
   id="linearGradient3392"><stop
     stop-color="#ffffff"
     offset="0"
     id="stop3394" /><stop
     stop-color="#ffffff"
     stop-opacity="0"
     offset="1"
     id="stop3396" /></linearGradient></defs>
















<g
   transform="translate(-5.210447e-5,4.612732e-5)"
   style="opacity:1;display:inline"
   id="layer1"><path
     d="M 1417.5448,1699.8019 C 1573.387,1699.8019 1699.7228,1573.4671 1699.7228,1417.6237"
     style="fill:none;fill-opacity:0.07843137;stroke:#e83131;stroke-width:10.2480011;stroke-linecap:round;stroke-linejoin:round;stroke-miterlimit:100;stroke-dasharray:none;stroke-opacity:0.66666667"
     id="path17680" /><path
     d="M 6.6549519,1417.6237 C 6.6549519,1573.4671 132.99081,1699.8019 288.83311,1699.8019"
     style="fill:none;fill-opacity:0.07843137;stroke:#e83131;stroke-width:10.2480011;stroke-linecap:round;stroke-linejoin:round;stroke-miterlimit:100;stroke-dasharray:none;stroke-opacity:0.66666667"
     id="path17682" /><line
     style="fill:none;fill-opacity:0.07843137;stroke:#e83131;stroke-width:10.2480011;stroke-linecap:round;stroke-linejoin:round;stroke-miterlimit:100;stroke-dasharray:none;stroke-opacity:0.66666667"
     id="line17684"
     y2="1699.802"
     x2="1417.5448"
     y1="1699.802"
     x1="288.83316"
     stroke-miterlimit="500" /><line
     style="fill:none;fill-opacity:0.07843137;stroke:#e83131;stroke-width:10.2480011;stroke-linecap:round;stroke-linejoin:round;stroke-miterlimit:100;stroke-dasharray:none;stroke-opacity:0.66666667"
     id="line17690"
     y2="1417.6238"
     x2="6.654954"
     y1="288.91214"
     x1="6.654954"
     stroke-miterlimit="500" /><path
     d="M 288.83311,6.7339793 C 132.99081,6.7339793 6.6549519,133.06984 6.6549519,288.91214"
     style="fill:none;fill-opacity:0.07843137;stroke:#e83131;stroke-width:10.2480011;stroke-linecap:round;stroke-linejoin:round;stroke-miterlimit:100;stroke-dasharray:none;stroke-opacity:0.66666667"
     id="path17692" /><line
     style="fill:none;fill-opacity:0.07843137;stroke:#e83131;stroke-width:10.2480011;stroke-linecap:round;stroke-linejoin:round;stroke-miterlimit:100;stroke-dasharray:none;stroke-opacity:0.66666667"
     id="line17694"
     y2="6.733994"
     x2="288.83316"
     y1="6.733994"
     x1="1417.5448"
     stroke-miterlimit="500" /><line
     style="fill:none;fill-opacity:0.07843137;stroke:#e83131;stroke-width:10.2480011;stroke-linecap:round;stroke-linejoin:round;stroke-miterlimit:100;stroke-dasharray:none;stroke-opacity:0.66666667"
     id="line17700"
     y2="288.91214"
     x2="1699.7231"
     y1="1417.6238"
     x1="1699.7231"
     stroke-miterlimit="500" /><path
     d="M 1699.7228,288.91214 C 1699.7228,214.07442 1669.9934,142.30174 1617.0748,89.383072 C 1564.1561,36.464399 1492.3835,6.7349693 1417.5457,6.7349693 L 288.83311,6.7349693 C 213.9944,6.7349693 142.22172,36.464399 89.303052,89.383072 C 36.385372,142.30174 6.6549519,214.07442 6.6549519,288.91214 L 6.6549519,1417.6237 C 6.6549519,1492.4625 36.384382,1564.2352 89.303052,1617.1528 C 142.22172,1670.0716 213.9944,1699.801 288.83311,1699.801 L 1417.5448,1699.801 C 1492.3835,1699.801 1564.1552,1670.0716 1617.0738,1617.1528 C 1669.9925,1564.2352 1699.7219,1492.4615 1699.7219,1417.6237 L 1699.7219,288.91214 L 1699.7228,288.91214 z "
     style="opacity:1;fill:url(#linearGradient14022);fill-opacity:1;fill-rule:evenodd;display:inline"
     id="path17668" /><path
     d="M 1699.7228,288.91214 C 1699.7228,133.06984 1573.387,6.7349693 1417.5448,6.7349693 L 288.83311,6.7349693 C 132.99081,6.7339793 6.6549519,133.06984 6.6549519,288.91214 L 6.6549519,1135.4457 C 684.27075,1188.7794 1335.8205,863.00502 1699.7228,288.91214 z "
     style="opacity:1;fill:url(#linearGradient14010);fill-opacity:1;fill-rule:evenodd;display:inline"
     id="path17670" /><path
     d="M 1417.5448,1671.5836 C 1558.5029,1661.1612 1674.5607,1556.7094 1699.7228,1417.6237 C 1699.7228,1573.4671 1573.387,1699.8019 1417.5448,1699.8019 L 288.83311,1699.8019 C 132.99081,1699.8019 6.6549519,1573.4671 6.6549519,1417.6237 C 31.816212,1556.7094 147.87494,1661.1612 288.83311,1671.5836 L 1417.5448,1671.5836 z "
     style="fill:white;fill-opacity:0.25842698;fill-rule:evenodd"
     id="path11342" /><path
     d="M 1417.5448,1699.8019 C 1573.387,1699.8019 1699.7228,1573.4671 1699.7228,1417.6237"
     style="fill:none;stroke:#f55;stroke-width:14.93190384;stroke-linecap:round;stroke-linejoin:round;stroke-miterlimit:100;stroke-dasharray:none;stroke-opacity:1"
     id="path11336" /><path
     d="M 6.6549519,1417.6237 C 6.6549519,1573.4671 132.99081,1699.8019 288.83311,1699.8019"
     style="fill:none;stroke:#f55;stroke-width:14.93190384;stroke-linecap:round;stroke-linejoin:round;stroke-miterlimit:100;stroke-dasharray:none;stroke-opacity:1"
     id="path11334" /><line
     stroke-miterlimit="500"
     x1="288.83316"
     y1="1699.802"
     x2="1417.5448"
     y2="1699.802"
     id="line11326"
     style="fill:none;stroke:#f55;stroke-width:14.93190384;stroke-linecap:round;stroke-linejoin:round;stroke-miterlimit:100;stroke-dasharray:none;stroke-opacity:1" /><line
     stroke-miterlimit="500"
     x1="6.654954"
     y1="288.91214"
     x2="6.654954"
     y2="1417.6238"
     id="line11332"
     style="fill:none;stroke:#f55;stroke-width:14.93190384;stroke-linecap:round;stroke-linejoin:round;stroke-miterlimit:100;stroke-dasharray:none;stroke-opacity:1" /><path
     d="M 288.83311,6.7339793 C 132.99081,6.7339793 6.6549519,133.06984 6.6549519,288.91214"
     style="fill:none;stroke:#f55;stroke-width:14.93190384;stroke-linecap:round;stroke-linejoin:round;stroke-miterlimit:100;stroke-dasharray:none;stroke-opacity:1"
     id="path11340" /><line
     stroke-miterlimit="500"
     x1="1417.5448"
     y1="6.733994"
     x2="288.83316"
     y2="6.733994"
     id="line11330"
     style="fill:none;stroke:#f55;stroke-width:14.93190384;stroke-linecap:round;stroke-linejoin:round;stroke-miterlimit:100;stroke-dasharray:none;stroke-opacity:1" /><path
     d="M 1699.7228,288.91214 C 1699.7228,133.06984 1573.387,6.7349693 1417.5448,6.7349693"
     style="fill:none;stroke:#f55;stroke-width:14.93190384;stroke-linecap:round;stroke-linejoin:round;stroke-miterlimit:100;stroke-dasharray:none;stroke-opacity:1"
     id="path11338" /><line
     stroke-miterlimit="500"
     x1="1699.7231"
     y1="1417.6238"
     x2="1699.7231"
     y2="288.91214"
     id="line11328"
     style="fill:none;stroke:#f55;stroke-width:14.93190384;stroke-linecap:round;stroke-linejoin:round;stroke-miterlimit:100;stroke-dasharray:none;stroke-opacity:1" /><path
     d="M 1417.5448,1671.5836 C 1558.5029,1661.1612 1674.5607,1556.7094 1699.7228,1417.6237 C 1699.7228,1573.4671 1573.387,1699.8019 1417.5448,1699.8019 L 288.83311,1699.8019 C 132.99081,1699.8019 6.6549519,1573.4671 6.6549519,1417.6237 C 31.816212,1556.7094 147.87494,1661.1612 288.83311,1671.5836 L 1417.5448,1671.5836 z "
     style="fill:white;fill-opacity:0.58823529;fill-rule:evenodd"
     id="path17676" /><path
     d="M 1699.7228,288.91214 C 1699.7228,133.06984 1573.387,6.7349693 1417.5448,6.7349693"
     style="fill:none;fill-opacity:0.07843137;stroke:#e83131;stroke-width:10.2480011;stroke-linecap:round;stroke-linejoin:round;stroke-miterlimit:100;stroke-dasharray:none;stroke-opacity:0.66666667"
     id="path17696" /><path
     d="M 6.6549519,1417.6237 C 30.031352,1417.6237 48.981922,1164.954 48.981922,853.26745 C 48.981922,541.58286 30.031352,288.91214 6.6549519,288.91214 L 6.6549519,1417.6237 L 6.6549519,1417.6237 z "
     style="fill:#b40000;fill-opacity:0.58823529;fill-rule:evenodd"
     id="path11324" /><path
     d="M 1699.7228,1417.6237 C 1676.3465,1417.6237 1657.3949,1164.954 1657.3949,853.26745 C 1657.3949,541.58286 1676.3455,288.91214 1699.7228,288.91214 L 1699.7228,1417.6237 z "
     style="fill:url(#linearGradient19843);fill-opacity:1;fill-rule:evenodd"
     id="path11322" /><path
     d="M 1699.7228,288.91214 C 1652.7113,168.68342 1545.1607,82.642811 1417.5448,63.170614 L 288.83311,63.170614 C 161.21708,82.642811 53.666562,168.68243 6.6549519,288.91214 C 6.6549519,133.06984 132.99081,6.7349693 288.83311,6.7349693 L 1417.5448,6.7349693 C 1573.387,6.7339793 1699.7228,133.06984 1699.7228,288.91214 z "
     style="fill:white;fill-opacity:0.54901961;fill-rule:evenodd"
     id="path14085" /></g><g
   transform="matrix(2.6832783,0,0,2.6832783,147.5247,68.344249)"
   id="g3301"><title
     id="title3303">Layer 1</title><g
     id="svg_1" /><g
     id="svg_2"><path
       style="fill:#ffd700;fill-rule:evenodd;stroke:#ffff00;stroke-width:2.15631104;stroke-miterlimit:4;stroke-opacity:0.50381703"
       inkscape:connector-curvature="0"
       stroke-miterlimit="4"
       id="path15995"
       d="m 187.05699,150.49159 c 25.21625,-29.03612 18.74001,-40.98788 14.62146,-60.979467 -8.76094,-9.216034 0.20705,-22.27317 7.38372,-57.529064 -22.9621,32.132915 -52.59551,37.477673 -22.00518,118.508531 z" /><path
       style="fill:url(#linearGradient4466);fill-rule:evenodd;stroke-width:2.15631104;stroke-miterlimit:4;stroke-opacity:0.50381703"
       inkscape:connector-curvature="0"
       stroke-miterlimit="4"
       id="path28564"
       d="m 203.01109,25.796162 c -14.68283,19.200638 -36.94871,36.918007 -35.78167,63.529736 -0.15816,22.126462 8.56253,42.769962 15.08152,63.529752 13.3116,-15.1954 27.47422,-34.49212 21.54959,-55.904034 0.0406,-8.471779 -5.89386,-15.048996 -6.06486,-23.050423 3.244,-18.886955 9.95602,-37.13105 12.60834,-56.187943 -2.4643,2.694296 -4.92861,5.388611 -7.39292,8.082912 z" /><path
       style="fill:url(#linearGradient4515);fill-rule:evenodd;stroke:#ffff00;stroke-width:2.15631104;stroke-miterlimit:4;stroke-opacity:0.50381703"
       inkscape:connector-curvature="0"
       stroke-miterlimit="4"
       id="path15991"
       d="m 83.306984,378.29629 c 30.514446,90.17695 78.791036,137.99814 165.324486,143.46348 95.18689,30.51428 183.54211,-31.88074 158.49295,-129.80027 -11.38599,20.95014 -18.673,32.33625 -38.2569,38.25687 7.7425,-54.19736 -41.90045,-63.306 -17.76214,-121.60236 16.85125,-35.97964 26.87091,-80.15728 -2.73264,-116.13701 -12.29687,40.98955 -27.32635,68.31597 -57.38537,98.37493 3.18808,-50.0983 29.60354,-90.63246 13.6632,-137.99814 2.27716,-31.88077 -50.09835,-30.96989 -50.5538,-128.433929 -33.24707,41.900452 -47.36568,74.236633 -42.35585,137.998169 -12.29687,51.46462 -42.35583,70.13773 -36.89058,125.70136 -4.55443,-30.96998 -7.74249,-57.8409 -1.36633,-80.61287 -3.64352,-28.23723 -7.28706,-52.37555 -35.52426,-72.41487 8.65333,35.06883 18.673,87.89981 -10.93057,101.10748 -8.1979,16.85124 -49.187466,74.69214 -4.09894,165.32458 -13.20775,-7.74246 -26.415514,-10.01968 -39.623255,-23.22741 z" /><path
       style="fill:url(#linearGradient4498);fill-rule:evenodd;stroke-width:2.15631104;stroke-miterlimit:4;stroke-opacity:0.50381703"
       inkscape:connector-curvature="0"
       stroke-miterlimit="4"
       id="path29198"
       d="m 244.18967,44.041962 c -23.64583,31.0466 -33.67414,70.694788 -30.65969,109.354968 2.25255,18.90519 -7.79855,36.50554 -14.95396,53.39369 -13.15778,25.17433 -25.0603,52.66727 -21.46242,81.75378 -1.03781,16.75995 -8.48378,-0.13812 -7.69971,-8.5679 -3.56593,-23.71298 -5.09101,-48.30363 -0.22688,-71.79422 -2.45167,-22.8587 -8.24205,-47.63754 -27.11806,-62.66031 5.60523,27.13339 12.88868,57.71471 -0.64073,83.63849 -4.85414,8.68491 -15.71214,11.05962 -17.98156,21.48856 -22.7784,39.9028 -24.494679,89.65078 -7.20099,131.89474 3.59895,9.62152 8.29338,18.8064 12.36819,28.23575 -12.69185,-7.24683 -26.61995,-12.16489 -38.886724,-20.1087 16.991784,49.75357 49.301234,98.6997 100.305424,118.06231 20.05751,8.53897 41.93033,10.12394 63.12152,13.49478 46.44791,14.50013 104.08786,4.97254 134.73215,-35.44659 18.00491,-23.38431 23.00668,-54.9422 16.87747,-83.44391 -8.11065,16.40354 -22.16482,29.69779 -40.31601,33.90881 4.1763,-21.0599 -2.18203,-42.13427 -13.06219,-60.14761 -11.74539,-19.22061 -14.5069,-43.51746 -5.13355,-64.28384 14.22187,-31.17215 24.97129,-68.89421 8.40842,-101.33715 -5.1257,-14.97688 -8.73398,-5.78317 -11.33078,4.82486 -10.82925,33.31159 -32.69656,61.64913 -57.44388,85.94912 1.71366,-33.9842 13.57074,-66.13857 18.60971,-99.54574 2.87723,-17.01867 -0.42807,-34.09648 -3.99102,-50.57734 -2.42542,-18.51917 -21.7262,-28.01898 -29.86948,-43.87757 -14.51196,-21.092083 -19.33862,-47.307358 -20.18591,-72.489041 -2.08646,2.760017 -4.17289,5.520039 -6.25934,8.28006 z" /><path
       style="fill:url(#linearGradient4512);fill-rule:evenodd;stroke:#ffff00;stroke-width:2.15631104;stroke-miterlimit:4;stroke-opacity:0.50381703"
       inkscape:connector-curvature="0"
       stroke-miterlimit="4"
       id="path15990"
       d="M 239.06729,508.09653 C 166.65242,431.58264 154.35554,378.29629 202.1767,327.74252 c 53.74182,-95.64226 40.53409,-155.76028 1.36632,-213.14561 36.89057,127.06753 -43.72222,209.04655 -69.68226,245.93718 -15.48492,-47.82105 -2.27719,-68.31589 19.12848,-127.06754 -41.90045,45.54395 -67.405064,100.65207 -51.9201,153.02762 28.23724,78.79102 94.73138,96.09775 137.99815,121.60236 z" /><path
       style="fill:#ffd700;fill-rule:evenodd;stroke:#ffff00;stroke-width:2.15631104;stroke-miterlimit:4;stroke-opacity:0.50381703"
       inkscape:connector-curvature="0"
       stroke-miterlimit="4"
       id="path15994"
       d="m 326.94965,219.00734 c -9.7071,-28.23261 -1.78568,-34.27881 6.71746,-46.61284 8.77152,-3.41631 6.08301,-15.32782 10.86948,-41.85523 7.24728,29.60869 26.70334,43.07129 -17.58695,88.46807 z" /><path
       style="fill:url(#linearGradient4501);fill-rule:evenodd;stroke-width:2.15631104;stroke-miterlimit:4;stroke-opacity:0.50381703"
       inkscape:connector-curvature="0"
       stroke-miterlimit="4"
       id="path28563"
       d="m 337.85776,125.89617 c -2.95148,12.58612 -1.61719,26.45683 -7.09717,38.1967 -12.83975,9.80889 -18.43848,28.03553 -12.80832,43.50343 1.74802,12.96409 5.80292,15.2007 12.99109,3.36236 15.34866,-15.79402 29.70966,-38.42358 20.97012,-61.05439 -3.94327,-11.54291 -7.39621,-23.2615 -11.78854,-34.6539 -0.75571,3.5486 -1.51142,7.09719 -2.26718,10.6458 z" /><path
       style="fill:#ffd700;fill-rule:evenodd;stroke:#ffff00;stroke-width:2.15631104;stroke-miterlimit:4;stroke-opacity:0.50381703"
       inkscape:connector-curvature="0"
       stroke-miterlimit="4"
       id="path15993"
       d="m 389.36227,391.9595 c 25.04917,-24.13833 20.03934,-34.61349 17.76215,-51.92007 -7.28702,-8.19788 1.82175,-19.12851 10.93054,-49.1875 -23.22742,26.87094 -50.55377,30.51449 -28.69269,101.10757 z" /><path
       style="fill:url(#linearGradient4479);fill-rule:evenodd;stroke:#ffff00;stroke-width:2.15631104;stroke-miterlimit:4;stroke-opacity:0.50381703"
       inkscape:connector-curvature="0"
       stroke-miterlimit="4"
       id="path15992"
       d="m 271.85892,508.09653 c 28.23721,-15.9404 35.97967,-66.03876 39.6232,-121.60236 6.8316,-53.74182 20.49478,-107.48367 110.67184,-116.13702 -36.89063,29.60363 -66.94965,66.03872 -53.28644,133.89926 -3.64352,98.83032 -76.9693,95.18677 -97.0086,103.84012 z" /><path
       style="fill:url(#linearGradient4476);fill-rule:evenodd;stroke-width:2.15631104;stroke-miterlimit:4;stroke-opacity:0.50381703"
       inkscape:connector-curvature="0"
       stroke-miterlimit="4"
       id="path26056"
       d="m 411.76309,262.50619 c -38.45294,5.45209 -78.08862,28.55375 -89.3746,67.79114 -18.11148,49.0448 -8.10343,104.86545 -32.80554,151.97553 -9.38111,4.07696 -7.08771,21.5665 4.49771,18.14453 33.93478,-6.15277 66.14215,-29.72775 74.73962,-64.32596 8.29202,-24.02591 3.59012,-49.44345 2.70804,-74.12198 1.1283,-35.79101 21.85162,-68.0665 49.05698,-90.14807 4.76232,-6.85904 -3.18045,-9.16629 -8.82221,-9.31519 z" /><path
       style="fill:url(#linearGradient4473);fill-rule:evenodd;stroke-width:2.15631104;stroke-miterlimit:4;stroke-opacity:0.50381703"
       inkscape:connector-curvature="0"
       stroke-miterlimit="4"
       id="path28562"
       d="m 412.23047,281.245 c -15.49554,16.40258 -37.97553,31.75302 -37.43317,56.97232 -1.14532,18.06869 5.289,35.29611 9.2908,52.63989 13.45105,-12.83566 28.74061,-29.55588 23.81342,-49.79798 -0.0351,-8.91946 -6.75745,-16.7218 -1.47995,-25.41238 5.06882,-13.76163 10.37116,-27.45526 13.89182,-41.74536 -2.69431,2.44788 -5.38862,4.89578 -8.08292,7.34351 z" /><path
       style="fill:url(#linearGradient4470);fill-rule:evenodd;stroke:#ffff00;stroke-width:2.15631104;stroke-miterlimit:4;stroke-opacity:0.50381703"
       inkscape:connector-curvature="0"
       stroke-miterlimit="4"
       id="path15989"
       d="m 222.67148,471.20596 c -3.64356,-43.72217 -8.65338,-75.14758 46.45483,-114.77078 93.36502,-65.12778 47.36566,-102.92931 -10.93057,-170.78975 17.3067,67.40494 -10.4751,121.14681 -34.15799,157.12657 -15.48491,22.31659 -69.22675,67.86051 -1.36627,128.43396 z" /><path
       style="fill:url(#linearGradient4463);fill-rule:evenodd;stroke-width:2.15631104;stroke-miterlimit:4;stroke-opacity:0.50381703"
       inkscape:connector-curvature="0"
       stroke-miterlimit="4"
       id="path26055"
       d="m 256.79074,174.34811 c 10.10181,45.95096 -0.30225,94.35868 -23.55578,134.728 -14.4367,27.75363 -42.90001,49.00897 -45.61225,82.02936 -4.35058,28.77441 16.38239,52.75806 35.59473,71.35202 7.82562,9.8399 1.11804,-13.42236 2.18317,-18.8678 -3.12235,-28.30786 1.73284,-60.07031 24.57598,-79.48825 25.43183,-24.74146 61.70392,-41.89221 73.88572,-77.45291 8.23959,-31.40573 -13.71601,-59.55626 -32.86582,-81.85715 -11.54901,-14.01355 -23.72516,-27.45218 -35.83218,-40.99048 0.54211,3.51573 1.08429,7.03147 1.62643,10.54721 z" /><path
       style="fill:url(#linearGradient4504);fill-rule:evenodd;stroke-width:2.15631104;stroke-miterlimit:4;stroke-opacity:0.50381703"
       inkscape:connector-curvature="0"
       stroke-miterlimit="4"
       id="path26054"
       d="m 210.89822,133.57968 c 0.99971,21.72965 7.17774,43.24742 4.34871,65.18111 -2.49551,51.2053 -24.99449,99.35866 -56.0551,139.4427 -5.76203,8.18732 -11.89881,16.10162 -17.83625,24.16214 -7.93965,-26.45328 -4.35537,-54.97662 6.33801,-80.07953 5.63123,-13.41324 9.58356,-27.33507 11.6514,-41.75566 -29.68352,27.07881 -50.63225,63.99101 -58.00971,103.50075 -5.979978,36.54175 6.87505,74.11081 31.11803,101.57345 30.48207,35.96134 74.3102,56.16803 116.78946,74.22983 -24.07074,-33.85827 -57.57921,-64.40948 -64.69538,-107.18683 -4.88121,-24.83917 4.89982,-49.76977 21.21236,-68.34109 18.67253,-25.65396 30.30223,-56.17078 37.21086,-86.97403 8.97229,-40.11691 1.77991,-83.49406 -20.14517,-118.28207 -5.41022,-3.95505 -15.0775,-24.73687 -11.92722,-5.47077 z" /></g></g></svg>