<?xml version="1.0" ?><!DOCTYPE svg  PUBLIC '-//W3C//DTD SVG 1.1//EN'  'http://www.w3.org/Graphics/SVG/1.1/DTD/svg11.dtd'><svg height="48px" id="Layer_1" style="enable-background:new 0 0 48 48;" version="1.1" viewBox="0 0 48 48" width="48px" x="0px" xml:space="preserve" xmlns="http://www.w3.org/2000/svg" xmlns:xlink="http://www.w3.org/1999/xlink" y="0px"><circle cx="23.86" cy="23.686" r="12.331" style="fill:none;stroke:#231F20;stroke-miterlimit:10;"/><circle cx="23.86" cy="23.746" r="9.206" style="fill:none;stroke:#231F20;stroke-miterlimit:10;"/><path d="M24.484,23.837c0,0.317-0.279,0.574-0.624,0.574l0,0c-0.344,0-0.624-0.257-0.624-0.574v-4.912  c0-0.317,0.279-0.574,0.624-0.574l0,0c0.345,0,0.624,0.257,0.624,0.574V23.837z" style="fill:#231F20;"/><path d="M23.86,24.411c-0.345,0-0.624-0.279-0.624-0.624l0,0c0-0.344,0.279-0.623,0.624-0.623h5.335  c0.345,0,0.624,0.279,0.624,0.623l0,0c0,0.345-0.279,0.624-0.624,0.624H23.86z" style="fill:#231F20;"/><line style="fill:none;stroke:#231F20;stroke-miterlimit:10;" x1="23.86" x2="23.86" y1="14.434" y2="16.301"/><line style="fill:none;stroke:#231F20;stroke-miterlimit:10;" x1="23.941" x2="23.941" y1="30.956" y2="32.823"/><line style="fill:none;stroke:#231F20;stroke-miterlimit:10;" x1="33.137" x2="31.27" y1="23.706" y2="23.706"/><line style="fill:none;stroke:#231F20;stroke-miterlimit:10;" x1="16.614" x2="14.747" y1="23.787" y2="23.787"/></svg>